{
	"asset":{
		"version":"2.0",
		"generator":"Maxon Cinema 4D 2026.1.3 (#200000219)"
	},
	"scenes":[{
		"nodes":[0]
	}],
	"nodes":[{
		"children":[1],
		"name":"Coffee Bean 02",
		"translation":[0.010238065384328366,
		0.08995027840137482,
		-0.004351872950792313],
		"rotation":[0.0,
		0.0,
		0.0,
		-1.0],
		"scale":[1.0,
		1.0,
		1.0]
	},
	{
		"name":"Coffee Bean 02",
		"mesh":0
	}],
	"meshes":[{
		"name":"Coffee Bean 02",
		"primitives":[{
			"attributes":{
				"POSITION":1,
				"NORMAL":2,
				"TEXCOORD_0":3
			},
			"indices":0,
			"material":0
		}]
	}],
	"accessors":[{
		"bufferView":0,
		"type":"SCALAR",
		"componentType":5123,
		"count":13824,
		"byteOffset":0,
		"min":[0],
		"max":[2460]
	},
	{
		"bufferView":1,
		"type":"VEC3",
		"componentType":5126,
		"count":2461,
		"byteOffset":0,
		"min":[-0.09318487346172333,
		-0.08995028585195542,
		-0.13182756304740907],
		"max":[0.08862243592739105,
		0.023700127378106118,
		0.13167080283164979]
	},
	{
		"bufferView":1,
		"type":"VEC3",
		"componentType":5126,
		"count":2461,
		"byteOffset":12,
		"min":[-0.9997714757919312,
		-0.9996858239173889,
		-0.9968298673629761],
		"max":[0.999832272529602,
		0.9999433159828186,
		0.9971014857292175]
	},
	{
		"bufferView":1,
		"type":"VEC2",
		"componentType":5126,
		"count":2461,
		"byteOffset":24,
		"min":[0.00032552858465351164,
		0.0003255285555496812],
		"max":[0.9990243911743164,
		0.8847779035568237]
	}],
	"bufferViews":[{
		"buffer":0,
		"byteOffset":0,
		"byteLength":27648,
		"target":34963
	},
	{
		"buffer":0,
		"byteOffset":27648,
		"byteLength":78752,
		"target":34962,
		"byteStride":32
	}],
	"buffers":[{
		"uri":"data:application/octet-stream;base64,",
		"byteLength":106400
	}],
	"images":[{
		"uri":"data:image/png;base64,"
	},
	{
		"uri":"data:image/png;base64,"
	},
	{
		"uri":"data:image/png;base64,"
	}],
	"samplers":[{
		"magFilter":9729,
		"minFilter":9729,
		"wrapS":10497,
		"wrapT":10497
	},
	{
		"magFilter":9729,
		"minFilter":9729,
		"wrapS":10497,
		"wrapT":10497
	},
	{
		"magFilter":9729,
		"minFilter":9729,
		"wrapS":10497,
		"wrapT":10497
	}],
	"textures":[{
		"sampler":0,
		"source":0
	},
	{
		"sampler":1,
		"source":1
	},
	{
		"sampler":2,
		"source":2
	}],
	"materials":[{
		"pbrMetallicRoughness":{
			"baseColorTexture":{
				"index":0
			},
			"baseColorFactor":[1.0,
			1.0,
			1.0,
			1.0],
			"metallicRoughnessTexture":{
				"index":1
			},
			"metallicFactor":0.0,
			"roughnessFactor":1.0
		},
		"normalTexture":{
			"index":2,
			"scale":2.0
		},
		"emissiveFactor":[0.0,
		0.0,
		0.0],
		"alphaMode":"OPAQUE",
		"doubleSided":false,
		"name":"coffee_Coffee Bean 02"
	}]
}