{
	"asset":{
		"version":"2.0",
		"generator":"Maxon Cinema 4D 2026.1.4 (#200000219)"
	},
	"scenes":[{
		"nodes":[0,
		1]
	}],
	"nodes":[{
		"name":"Plan",
		"mesh":0
	},
	{
		"name":"Épaisseur.1",
		"scale":[1.0,
		1.0,
		1.0],
		"mesh":1,
		"translation":[-0.035895995795726779,
		0.713862955570221,
		0.06884704530239105],
		"rotation":[0.0,
		0.0,
		0.0,
		-1.0]
	}],
	"meshes":[{
		"name":"Plan",
		"primitives":[{
			"material":0,
			"attributes":{
				"POSITION":1,
				"NORMAL":2,
				"TEXCOORD_0":3
			},
			"indices":0
		}]
	},
	{
		"name":"Épaisseur.1",
		"primitives":[{
			"material":1,
			"attributes":{
				"POSITION":5,
				"NORMAL":6,
				"TEXCOORD_0":7
			},
			"indices":4
		}]
	}],
	"accessors":[{
		"bufferView":0,
		"type":"SCALAR",
		"componentType":5123,
		"max":[599],
		"count":600,
		"byteOffset":0,
		"min":[0]
	},
	{
		"bufferView":1,
		"type":"VEC3",
		"componentType":5126,
		"max":[2.0,
		0.0,
		2.0],
		"count":600,
		"byteOffset":0,
		"min":[-2.0,
		0.0,
		-2.0]
	},
	{
		"bufferView":1,
		"type":"VEC3",
		"componentType":5126,
		"max":[0.0,
		1.0,
		0.0],
		"count":600,
		"byteOffset":12,
		"min":[0.0,
		1.0,
		0.0]
	},
	{
		"bufferView":1,
		"type":"VEC2",
		"componentType":5126,
		"max":[1.0,
		1.0],
		"count":600,
		"byteOffset":24,
		"min":[0.0,
		0.0]
	},
	{
		"bufferView":2,
		"type":"SCALAR",
		"componentType":5123,
		"max":[1247],
		"count":1248,
		"byteOffset":0,
		"min":[0]
	},
	{
		"bufferView":3,
		"type":"VEC3",
		"componentType":5126,
		"max":[1.517022728919983,
		2.027529001235962,
		1.517022728919983],
		"count":1248,
		"byteOffset":0,
		"min":[-1.517022728919983,
		-0.7138635516166687,
		-1.517022728919983]
	},
	{
		"bufferView":3,
		"type":"VEC3",
		"componentType":5126,
		"max":[0.9997084736824036,
		0.9994811415672302,
		0.9997084736824036],
		"count":1248,
		"byteOffset":12,
		"min":[-0.9997084736824036,
		-0.9994754195213318,
		-0.9997084736824036]
	},
	{
		"bufferView":3,
		"type":"VEC2",
		"componentType":5126,
		"max":[0.9987017512321472,
		0.7059129476547241],
		"count":1248,
		"byteOffset":24,
		"min":[0.0006510441307909787,
		0.0006510440725833178]
	}],
	"bufferViews":[{
		"buffer":0,
		"byteOffset":0,
		"byteLength":1200,
		"target":34963
	},
	{
		"buffer":0,
		"byteOffset":1200,
		"byteLength":19200,
		"target":34962,
		"byteStride":32
	},
	{
		"buffer":1,
		"byteOffset":0,
		"byteLength":2496,
		"target":34963
	},
	{
		"buffer":1,
		"byteOffset":2496,
		"byteLength":39936,
		"target":34962,
		"byteStride":32
	}],
	"buffers":[{
		"uri":"data:application/octet-stream;base64,",
		"byteLength":20400
	},
	{
		"uri":"data:application/octet-stream;base64,",
		"byteLength":42432
	}],
	"images":[{
		"uri":"data:image/png;base64,"
	}],
	"samplers":[{
		"magFilter":9729,
		"minFilter":9729,
		"wrapS":10497,
		"wrapT":10497
	}],
	"textures":[{
		"sampler":0,
		"source":0
	}],
	"materials":[{
		"pbrMetallicRoughness":{
			"baseColorFactor":[0.9063316583633423,
			0.9063316583633423,
			0.9063316583633423,
			1.0],
			"metallicFactor":0.0,
			"roughnessFactor":0.5
		},
		"normalTexture":{
			"index":0,
			"scale":1.0
		},
		"emissiveFactor":[0.0,
		0.0,
		0.0],
		"alphaMode":"OPAQUE",
		"doubleSided":false,
		"name":"BakedMaterial"
	},
	{
		"pbrMetallicRoughness":{
			"baseColorFactor":[0.6954747438430786,
			0.06850889325141907,
			0.06850890815258026,
			1.0],
			"metallicFactor":0.0,
			"roughnessFactor":1.0
		},
		"emissiveFactor":[0.0,
		0.0,
		0.0],
		"alphaMode":"OPAQUE",
		"doubleSided":false,
		"name":"Mat"
	}]
}